<?xml version="1.0" encoding="utf-8"?>
<!-- Generator: Adobe Illustrator 17.1.0, SVG Export Plug-In . SVG Version: 6.00 Build 0)  -->
<!DOCTYPE svg PUBLIC "-//W3C//DTD SVG 1.1//EN" "http://www.w3.org/Graphics/SVG/1.1/DTD/svg11.dtd">
<svg version="1.1" id="图层_1" xmlns="http://www.w3.org/2000/svg" xmlns:xlink="http://www.w3.org/1999/xlink" x="0px" y="0px"
	 viewBox="0 0 200 200" enable-background="new 0 0 200 200" xml:space="preserve">
<path d="M100,12.5c-48.3,0-87.5,39.2-87.5,87.5s39.2,87.5,87.5,87.5s87.5-39.2,87.5-87.5S148.3,12.5,100,12.5z M120.3,74.4
	c0,2-1,3.9-2.6,5.1L89.3,100l28.4,20.5c1.6,1.2,2.6,3,2.6,5.1v9.2c0,1.3-1.4,2-2.5,1.3l-48-34.8c-0.9-0.6-0.9-1.9,0-2.5l48-34.8
	c1-0.7,2.5,0,2.5,1.3V74.4z"/>
</svg>
