<?xml version="1.0" encoding="utf-8"?>
<!-- Generator: Adobe Illustrator 18.0.0, SVG Export Plug-In . SVG Version: 6.00 Build 0)  -->
<!DOCTYPE svg PUBLIC "-//W3C//DTD SVG 1.1//EN" "http://www.w3.org/Graphics/SVG/1.1/DTD/svg11.dtd">
<svg version="1.1" id="图层_1" xmlns="http://www.w3.org/2000/svg" xmlns:xlink="http://www.w3.org/1999/xlink" x="0px" y="0px"
	 viewBox="0 0 32 32" enable-background="new 0 0 32 32" xml:space="preserve">
<g>
	<path fill="#595758" d="M528.7-2854.6H486c-7.2,0-13-5.8-13-13v0c0-7.2,5.8-13,13-13c13,0,27.2,0,39.9,0c4.7,0,8.9,2.5,11.4,6.4
		c2.3,3.5,7,6.9,16.7,6.9h21.8c0,0-7.1-3.2-7.1-9.8l0,0c0-20.5-16.6-37-37-37h-45.9c-25.7,0-46.5,20.8-46.4,46.5l0,0
		c0,25.6,20.8,46.4,46.4,46.4c12.5,0,30.7,0,42.8,0c7.1,0,12.8,5.7,12.8,12.8l0,0c0,7.1-5.7,12.8-12.8,12.8
		c-13.1,0-27.9-0.1-40.6-0.1c-4.7,0-8.9-2.5-11.5-6.4c-2.3-3.4-7-6.8-16.7-6.8h-21.8c0,0,7.1,3.2,7.1,9.8v0c0,20.5,16.6,37,37,37
		h46.6c25.5,0,46.2-20.7,46.2-46.2v0C574.9-2833.9,554.2-2854.6,528.7-2854.6z"/>
	<path fill="#595758" d="M990.1-2854.6h-42.7c-7.2,0-13-5.8-13-13v0c0-7.2,5.8-13,13-13c13,0,27.2,0,39.9,0c4.7,0,8.9,2.5,11.4,6.4
		c2.3,3.5,7,6.9,16.7,6.9h21.8c0,0-7.1-3.2-7.1-9.8l0,0c0-20.5-16.6-37-37-37h-45.9c-25.7,0-46.5,20.8-46.4,46.5l0,0
		c0,25.6,20.8,46.4,46.4,46.4c12.5,0,30.7,0,42.8,0c7.1,0,12.8,5.7,12.8,12.8l0,0c0,7.1-5.7,12.8-12.8,12.8
		c-13.1,0-27.9-0.1-40.6-0.1c-4.7,0-8.9-2.5-11.5-6.4c-2.3-3.4-7-6.8-16.7-6.8h-21.8c0,0,7.1,3.2,7.1,9.8v0c0,20.5,16.6,37,37,37
		h46.6c25.5,0,46.2-20.7,46.2-46.2v0C1036.3-2833.9,1015.6-2854.6,990.1-2854.6z"/>
	<g>
		<linearGradient id="SVGID_1_" gradientUnits="userSpaceOnUse" x1="281.212" y1="-2852.3252" x2="281.212" y2="-2762.4465">
			<stop  offset="0" style="stop-color:#FABE00"/>
			<stop  offset="0.2164" style="stop-color:#FABC00"/>
			<stop  offset="0.3903" style="stop-color:#F8B500"/>
			<stop  offset="0.5494" style="stop-color:#F6A800"/>
			<stop  offset="0.6996" style="stop-color:#F39500"/>
			<stop  offset="0.8437" style="stop-color:#EF7C00"/>
			<stop  offset="0.9813" style="stop-color:#EB5A02"/>
			<stop  offset="1" style="stop-color:#EA5504"/>
		</linearGradient>
		<path fill="url(#SVGID_1_)" d="M279.7-2761.8h21.9c0,0-7.1-3.2-7.1-9.9c0-6.6,0-80.3,0-80.3h-33.6v76.1
			C260.9-2775.8,260-2761.8,279.7-2761.8z"/>
		<linearGradient id="SVGID_2_" gradientUnits="userSpaceOnUse" x1="300.9884" y1="-2811.6958" x2="402.8881" y2="-2811.6958">
			<stop  offset="0" style="stop-color:#EA5504"/>
			<stop  offset="0.1608" style="stop-color:#EC6500"/>
			<stop  offset="0.5091" style="stop-color:#F08100"/>
			<stop  offset="0.8013" style="stop-color:#F29200"/>
			<stop  offset="1" style="stop-color:#F39800"/>
		</linearGradient>
		<path fill="url(#SVGID_2_)" d="M384.7-2767.4l18.2-18.2c0,0-8.6,7-20.4-4.9c-4.7-4.7-71.1-71.1-71.1-71.1l-10.4,37.2l52.2,52.2
			C353.2-2772.3,369.6-2752.3,384.7-2767.4z"/>
		<linearGradient id="SVGID_3_" gradientUnits="userSpaceOnUse" x1="294.5013" y1="-2859.6414" x2="402.8874" y2="-2859.6414">
			<stop  offset="0" style="stop-color:#FABE00"/>
			<stop  offset="1" style="stop-color:#EE7800"/>
		</linearGradient>
		<path fill="url(#SVGID_3_)" d="M384.7-2908.3c-15.1-15.1-31.5,4.9-31.5,4.9l-53.7,53.7c-11.1,13-0.1,23.7-0.1,23.7l11.9,11.9l0,0
			l8.7,8.7c-6.5-9,0.8-18.1,0.8-18.1h0c18.5-18.5,58.1-58.1,61.6-61.6c11.8-11.8,20.4-4.9,20.4-4.9L384.7-2908.3z"/>
		<linearGradient id="SVGID_4_" gradientUnits="userSpaceOnUse" x1="274.1377" y1="-2913.0498" x2="274.1377" y2="-2818.3665">
			<stop  offset="0" style="stop-color:#FABE00"/>
			<stop  offset="1" style="stop-color:#EA5504"/>
		</linearGradient>
		<path fill="url(#SVGID_4_)" d="M260.9-2817.3c0,0,0-80.1,0-86.7c0-6.6-7.1-9.9-7.1-9.9h21.9c19.8,0,18.8,14,18.8,14v60.4
			C294.5-2839.5,296.3-2817.3,260.9-2817.3z"/>
	</g>
	<linearGradient id="SVGID_5_" gradientUnits="userSpaceOnUse" x1="392.8606" y1="-2860.5859" x2="392.8606" y2="-2814.4211">
		<stop  offset="0" style="stop-color:#FABE00"/>
		<stop  offset="1" style="stop-color:#EE7800"/>
	</linearGradient>
	<polygon fill="url(#SVGID_5_)" points="392.9,-2861.9 417,-2837.8 392.9,-2813.7 368.8,-2837.8 	"/>
	<rect x="253.8" y="-2913.9" fill="none" width="149.1" height="152.1"/>
	<g>
		<g>
			<path fill="#595758" d="M659.2-2761.9c-39.1,0-70.8-31.8-70.8-70.8s31.8-70.8,70.8-70.8c39.1,0,70.8,31.8,70.8,70.8
				S698.2-2761.9,659.2-2761.9z M659.2-2870c-20.6,0-37.3,16.7-37.3,37.3c0,20.6,16.7,37.3,37.3,37.3c20.6,0,37.3-16.7,37.3-37.3
				C696.5-2853.3,679.7-2870,659.2-2870z"/>
		</g>
		<path fill="#595758" d="M715.1-2762.1H737c0,0-7.1-3.2-7.1-9.9c0-6.6,0-59,0-59h-33.6v54.9
			C696.3-2776.1,695.4-2762.1,715.1-2762.1z"/>
	</g>
	<g>
		<g>
			<path fill="#595758" d="M814.7-2761.9c-39.1,0-70.8-31.8-70.8-70.8s31.8-70.8,70.8-70.8c39.1,0,70.8,31.8,70.8,70.8
				S853.8-2761.9,814.7-2761.9z M814.7-2870c-20.6,0-37.3,16.7-37.3,37.3c0,20.6,16.7,37.3,37.3,37.3c20.6,0,37.3-16.7,37.3-37.3
				C852.1-2853.3,835.3-2870,814.7-2870z"/>
		</g>
		<path fill="#595758" d="M870.7-2762.1h21.9c0,0-7.1-3.2-7.1-9.9c0-6.6,0-59,0-59h-33.6v54.9C851.9-2776.1,851-2762.1,870.7-2762.1
			z"/>
	</g>
</g>
<g>
	<linearGradient id="SVGID_6_" gradientUnits="userSpaceOnUse" x1="960.3943" y1="-3220.0186" x2="1001.5118" y2="-3220.0186">
		<stop  offset="0" style="stop-color:#FABE00"/>
		<stop  offset="1" style="stop-color:#EE7800"/>
	</linearGradient>
	
		<line fill="none" stroke="url(#SVGID_6_)" stroke-width="10.7985" stroke-miterlimit="10" x1="996.2" y1="-3308.5" x2="965.7" y2="-3131.6"/>
	<linearGradient id="SVGID_7_" gradientUnits="userSpaceOnUse" x1="287.4201" y1="-3175.9788" x2="354.3895" y2="-3175.9788">
		<stop  offset="0" style="stop-color:#FABE00"/>
		<stop  offset="1" style="stop-color:#EE7800"/>
	</linearGradient>
	
		<line fill="none" stroke="url(#SVGID_7_)" stroke-width="10.7985" stroke-miterlimit="10" x1="292.4" y1="-3242.4" x2="349.4" y2="-3109.5"/>
	<linearGradient id="SVGID_8_" gradientUnits="userSpaceOnUse" x1="399.7068" y1="-3299.916" x2="998.1884" y2="-3299.916">
		<stop  offset="0" style="stop-color:#FABE00"/>
		<stop  offset="1" style="stop-color:#EE7800"/>
	</linearGradient>
	<polyline fill="none" stroke="url(#SVGID_8_)" stroke-width="10.7985" stroke-miterlimit="10" points="403.8,-3438.1 
		635.1,-3164.7 996.2,-3308.5 	"/>
	<linearGradient id="SVGID_9_" gradientUnits="userSpaceOnUse" x1="291.3749" y1="-3346.6267" x2="776.7626" y2="-3346.6267">
		<stop  offset="0" style="stop-color:#FABE00"/>
		<stop  offset="1" style="stop-color:#EE7800"/>
	</linearGradient>
	<polyline fill="none" stroke="url(#SVGID_9_)" stroke-width="10.7985" stroke-miterlimit="10" points="771.7,-3523.1 650,-3174.6 
		292.4,-3242.4 	"/>
	<linearGradient id="SVGID_10_" gradientUnits="userSpaceOnUse" x1="520.6028" y1="-3285.9023" x2="659.3151" y2="-3285.9023">
		<stop  offset="0" style="stop-color:#FABE00"/>
		<stop  offset="1" style="stop-color:#EE7800"/>
	</linearGradient>
	
		<line fill="none" stroke="url(#SVGID_10_)" stroke-width="10.7985" stroke-miterlimit="10" x1="654.6" y1="-3174.6" x2="525.3" y2="-3397.2"/>
	<linearGradient id="SVGID_11_" gradientUnits="userSpaceOnUse" x1="322.2903" y1="-3174.5623" x2="987.0027" y2="-3174.5623">
		<stop  offset="0" style="stop-color:#FABE00"/>
		<stop  offset="1" style="stop-color:#EE7800"/>
	</linearGradient>
	<path fill="url(#SVGID_11_)" d="M987-3100.9c0-53.3-36.8-98-86.3-110c-2.1-83.5-70.4-150.6-154.4-150.6c-49.2,0-93,23-121.3,58.9
		c-15.9-20.5-40.7-33.7-68.6-33.7c-47.9,0-86.7,38.9-86.7,86.8c0,4.2,0.3,8.3,0.9,12.3c-7.3-1.3-14.8-2-22.4-2
		c-69.5,0-125.8,56.3-125.8,125.8c0,69.5,56.3,125.8,125.8,125.8h426C936.4-2987.7,987-3038.4,987-3100.9L987-3100.9z M987-3100.9"
		/>
	<linearGradient id="SVGID_12_" gradientUnits="userSpaceOnUse" x1="287.6898" y1="-3384.6882" x2="999.9215" y2="-3384.6882">
		<stop  offset="0" style="stop-color:#FABE00"/>
		<stop  offset="1" style="stop-color:#EE7800"/>
	</linearGradient>
	<polyline fill="none" stroke="url(#SVGID_12_)" stroke-width="10.7985" stroke-miterlimit="10" points="292.4,-3242.4 
		403.8,-3438.1 525.3,-3397.2 771.7,-3523.1 996.2,-3308.5 	"/>
	<linearGradient id="SVGID_13_" gradientUnits="userSpaceOnUse" x1="253.2963" y1="-3242.4133" x2="331.4666" y2="-3242.4133">
		<stop  offset="0" style="stop-color:#FABE00"/>
		<stop  offset="1" style="stop-color:#EE7800"/>
	</linearGradient>
	<circle fill="url(#SVGID_13_)" cx="292.4" cy="-3242.4" r="39.1"/>
	<linearGradient id="SVGID_14_" gradientUnits="userSpaceOnUse" x1="486.1863" y1="-3397.2424" x2="564.3565" y2="-3397.2424">
		<stop  offset="0" style="stop-color:#FABE00"/>
		<stop  offset="1" style="stop-color:#EE7800"/>
	</linearGradient>
	<circle fill="url(#SVGID_14_)" cx="525.3" cy="-3397.2" r="39.1"/>
	<linearGradient id="SVGID_15_" gradientUnits="userSpaceOnUse" x1="955.3381" y1="-3308.4829" x2="1037.0437" y2="-3308.4829">
		<stop  offset="0" style="stop-color:#FABE00"/>
		<stop  offset="1" style="stop-color:#EE7800"/>
	</linearGradient>
	<circle fill="url(#SVGID_15_)" cx="996.2" cy="-3308.5" r="40.9"/>
	<linearGradient id="SVGID_16_" gradientUnits="userSpaceOnUse" x1="730.8124" y1="-3523.0828" x2="812.518" y2="-3523.0828">
		<stop  offset="0" style="stop-color:#FABE00"/>
		<stop  offset="1" style="stop-color:#EE7800"/>
	</linearGradient>
	<circle fill="url(#SVGID_16_)" cx="771.7" cy="-3523.1" r="40.9"/>
	<linearGradient id="SVGID_17_" gradientUnits="userSpaceOnUse" x1="362.976" y1="-3438.0952" x2="444.6815" y2="-3438.0952">
		<stop  offset="0" style="stop-color:#FABE00"/>
		<stop  offset="1" style="stop-color:#EE7800"/>
	</linearGradient>
	<circle fill="url(#SVGID_17_)" cx="403.8" cy="-3438.1" r="40.9"/>
	<g>
		<path fill="#FFFFFF" d="M647.8-3165.8L647.8-3165.8l-17.7-20.8l-0.8-0.7c-21.8-20.5-45.1-30.4-71.3-30.4
			c-47.9,0-86.8,38.9-86.8,86.8c0,47.9,38.9,86.8,86.8,86.8c26.2,0,49.6-10,71.3-30.4l0.8-0.7l10.9-12.8l-24.8-29.2l-13.5,15.8
			c-14.5,13.5-28.4,19.5-44.7,19.5c-27,0-49-22-49-49c0-27,22-49,49-49c16.3,0,30.1,6,44.7,19.5l21.6,25.3l0,0l28.4,33.4l0,0l2,2.3
			v-58.2L647.8-3165.8z"/>
	</g>
	<g>
		<path fill="#FFFFFF" d="M661.5-3091.7L661.5-3091.7l17.7,20.8l0.8,0.7c21.8,20.5,45.1,30.4,71.3,30.4c47.9,0,86.8-38.9,86.8-86.8
			c0-47.9-38.9-86.8-86.8-86.8c-26.2,0-49.6,10-71.3,30.4l-0.8,0.7l-10.9,12.8l24.8,29.2l13.5-15.8c14.5-13.5,28.4-19.5,44.7-19.5
			c27,0,49,22,49,49c0,27-22,49-49,49c-16.3,0-30.1-6-44.7-19.5l-21.6-25.3l0,0l-28.4-33.4l0,0l-2-2.3v58.2L661.5-3091.7z"/>
	</g>
</g>
<g>
	<linearGradient id="SVGID_18_" gradientUnits="userSpaceOnUse" x1="28.4682" y1="17.8376" x2="30.0946" y2="17.8376">
		<stop  offset="0" style="stop-color:#FABE00"/>
		<stop  offset="1" style="stop-color:#EE7800"/>
	</linearGradient>
	
		<line fill="none" stroke="url(#SVGID_18_)" stroke-width="0.4271" stroke-miterlimit="10" x1="29.9" y1="14.3" x2="28.7" y2="21.3"/>
	<linearGradient id="SVGID_19_" gradientUnits="userSpaceOnUse" x1="1.8497" y1="19.5796" x2="4.4986" y2="19.5796">
		<stop  offset="0" style="stop-color:#FABE00"/>
		<stop  offset="1" style="stop-color:#EE7800"/>
	</linearGradient>
	<line fill="none" stroke="url(#SVGID_19_)" stroke-width="0.4271" stroke-miterlimit="10" x1="2" y1="17" x2="4.3" y2="22.2"/>
	<linearGradient id="SVGID_20_" gradientUnits="userSpaceOnUse" x1="6.2911" y1="14.6774" x2="29.9631" y2="14.6774">
		<stop  offset="0" style="stop-color:#FABE00"/>
		<stop  offset="1" style="stop-color:#EE7800"/>
	</linearGradient>
	<polyline fill="none" stroke="url(#SVGID_20_)" stroke-width="0.4271" stroke-miterlimit="10" points="6.5,9.2 15.6,20 29.9,14.3 	
		"/>
	<linearGradient id="SVGID_21_" gradientUnits="userSpaceOnUse" x1="2.0061" y1="12.8298" x2="21.205" y2="12.8298">
		<stop  offset="0" style="stop-color:#FABE00"/>
		<stop  offset="1" style="stop-color:#EE7800"/>
	</linearGradient>
	<polyline fill="none" stroke="url(#SVGID_21_)" stroke-width="0.4271" stroke-miterlimit="10" points="21,5.9 16.2,19.6 2,17 	"/>
	<linearGradient id="SVGID_22_" gradientUnits="userSpaceOnUse" x1="11.0729" y1="15.2317" x2="16.5595" y2="15.2317">
		<stop  offset="0" style="stop-color:#FABE00"/>
		<stop  offset="1" style="stop-color:#EE7800"/>
	</linearGradient>
	
		<line fill="none" stroke="url(#SVGID_22_)" stroke-width="0.4271" stroke-miterlimit="10" x1="16.4" y1="19.6" x2="11.3" y2="10.8"/>
	<linearGradient id="SVGID_23_" gradientUnits="userSpaceOnUse" x1="3.229" y1="19.6356" x2="29.5207" y2="19.6356">
		<stop  offset="0" style="stop-color:#FABE00"/>
		<stop  offset="1" style="stop-color:#EE7800"/>
	</linearGradient>
	<path fill="url(#SVGID_23_)" d="M29.5,22.6c0-2.1-1.5-3.9-3.4-4.4c-0.1-3.3-2.8-6-6.1-6c-1.9,0-3.7,0.9-4.8,2.3
		c-0.6-0.8-1.6-1.3-2.7-1.3c-1.9,0-3.4,1.5-3.4,3.4c0,0.2,0,0.3,0,0.5c-0.3-0.1-0.6-0.1-0.9-0.1c-2.7,0-5,2.2-5,5s2.2,5,5,5h16.8
		C27.5,27,29.5,25,29.5,22.6L29.5,22.6z M29.5,22.6"/>
	<linearGradient id="SVGID_24_" gradientUnits="userSpaceOnUse" x1="1.8604" y1="11.3244" x2="30.0317" y2="11.3244">
		<stop  offset="0" style="stop-color:#FABE00"/>
		<stop  offset="1" style="stop-color:#EE7800"/>
	</linearGradient>
	<polyline fill="none" stroke="url(#SVGID_24_)" stroke-width="0.4271" stroke-miterlimit="10" points="2,17 6.5,9.2 11.3,10.8 
		21,5.9 29.9,14.3 	"/>
	<linearGradient id="SVGID_25_" gradientUnits="userSpaceOnUse" x1="0.5" y1="16.9518" x2="3.5919" y2="16.9518">
		<stop  offset="0" style="stop-color:#FABE00"/>
		<stop  offset="1" style="stop-color:#EE7800"/>
	</linearGradient>
	<circle fill="url(#SVGID_25_)" cx="2" cy="17" r="1.5"/>
	<linearGradient id="SVGID_26_" gradientUnits="userSpaceOnUse" x1="9.7116" y1="10.8278" x2="12.8035" y2="10.8278">
		<stop  offset="0" style="stop-color:#FABE00"/>
		<stop  offset="1" style="stop-color:#EE7800"/>
	</linearGradient>
	<circle fill="url(#SVGID_26_)" cx="11.3" cy="10.8" r="1.5"/>
	<linearGradient id="SVGID_27_" gradientUnits="userSpaceOnUse" x1="28.2683" y1="14.3386" x2="31.5" y2="14.3386">
		<stop  offset="0" style="stop-color:#FABE00"/>
		<stop  offset="1" style="stop-color:#EE7800"/>
	</linearGradient>
	<circle fill="url(#SVGID_27_)" cx="29.9" cy="14.3" r="1.6"/>
	<linearGradient id="SVGID_28_" gradientUnits="userSpaceOnUse" x1="19.3875" y1="5.8504" x2="22.6192" y2="5.8504">
		<stop  offset="0" style="stop-color:#FABE00"/>
		<stop  offset="1" style="stop-color:#EE7800"/>
	</linearGradient>
	<circle fill="url(#SVGID_28_)" cx="21" cy="5.9" r="1.6"/>
	<linearGradient id="SVGID_29_" gradientUnits="userSpaceOnUse" x1="4.8382" y1="9.2119" x2="8.07" y2="9.2119">
		<stop  offset="0" style="stop-color:#FABE00"/>
		<stop  offset="1" style="stop-color:#EE7800"/>
	</linearGradient>
	<circle fill="url(#SVGID_29_)" cx="6.5" cy="9.2" r="1.6"/>
	<g>
		<path fill="#FFFFFF" d="M16.1,20L16.1,20l-0.7-0.8l0,0c-0.9-0.8-1.8-1.2-2.8-1.2c-1.9,0-3.4,1.5-3.4,3.4c0,1.9,1.5,3.4,3.4,3.4
			c1,0,2-0.4,2.8-1.2l0,0l0.4-0.5l-1-1.2l-0.5,0.6c-0.6,0.5-1.1,0.8-1.8,0.8c-1.1,0-1.9-0.9-1.9-1.9c0-1.1,0.9-1.9,1.9-1.9
			c0.6,0,1.2,0.2,1.8,0.8l0.9,1l0,0l1.1,1.3l0,0l0.1,0.1v-2.3L16.1,20z"/>
	</g>
	<g>
		<path fill="#FFFFFF" d="M16.6,22.9L16.6,22.9l0.7,0.8l0,0c0.9,0.8,1.8,1.2,2.8,1.2c1.9,0,3.4-1.5,3.4-3.4c0-1.9-1.5-3.4-3.4-3.4
			c-1,0-2,0.4-2.8,1.2l0,0l-0.4,0.5l1,1.2l0.5-0.6c0.6-0.5,1.1-0.8,1.8-0.8c1.1,0,1.9,0.9,1.9,1.9c0,1.1-0.9,1.9-1.9,1.9
			c-0.6,0-1.2-0.2-1.8-0.8l-0.9-1l0,0l-1.1-1.3l0,0l-0.1-0.1v2.3L16.6,22.9z"/>
	</g>
</g>
</svg>
