<?xml version="1.0" encoding="utf-8"?>
<!-- Generator: Adobe Illustrator 17.1.0, SVG Export Plug-In . SVG Version: 6.00 Build 0)  -->
<!DOCTYPE svg PUBLIC "-//W3C//DTD SVG 1.1//EN" "http://www.w3.org/Graphics/SVG/1.1/DTD/svg11.dtd">
<svg version="1.1" id="图层_1" xmlns="http://www.w3.org/2000/svg" xmlns:xlink="http://www.w3.org/1999/xlink" x="0px" y="0px"
	 viewBox="0 618.9 612 167.4" enable-background="new 0 618.9 612 167.4" xml:space="preserve">
<g>
	<path fill="#595758" d="M389.6,716.9H371c-3.1,0-5.7-2.5-5.7-5.7l0,0c0-3.1,2.5-5.7,5.7-5.7c5.7,0,11.9,0,17.4,0c2,0,3.9,1.1,5,2.8
		c1,1.5,3,3,7.3,3h9.5c0,0-3.1-1.4-3.1-4.3l0,0c0-9-7.2-16.2-16.2-16.2h-20c-11.2,0-20.3,9.1-20.3,20.3l0,0
		c0,11.2,9.1,20.3,20.3,20.3c5.4,0,13.4,0,18.7,0c3.1,0,5.6,2.5,5.6,5.6l0,0c0,3.1-2.5,5.6-5.6,5.6c-5.7,0-12.2-0.1-17.8-0.1
		c-2,0-3.9-1.1-5-2.8c-1-1.5-3-3-7.3-3H350c0,0,3.1,1.4,3.1,4.3l0,0c0,9,7.2,16.2,16.2,16.2h20.4c11.2,0,20.2-9,20.2-20.2l0,0
		C409.8,726,400.8,716.9,389.6,716.9z"/>
	<path fill="#595758" d="M591.2,716.9h-18.6c-3.1,0-5.7-2.5-5.7-5.7l0,0c0-3.1,2.5-5.7,5.7-5.7c5.7,0,11.9,0,17.4,0
		c2,0,3.9,1.1,5,2.8c1,1.5,3,3,7.3,3h9.5c0,0-3.1-1.4-3.1-4.3l0,0c0-9-7.2-16.2-16.2-16.2h-20c-11.2,0-20.3,9.1-20.3,20.3l0,0
		c0,11.2,9.1,20.3,20.3,20.3c5.4,0,13.4,0,18.7,0c3.1,0,5.6,2.5,5.6,5.6l0,0c0,3.1-2.5,5.6-5.6,5.6c-5.7,0-12.2-0.1-17.8-0.1
		c-2,0-3.9-1.1-5-2.8c-1-1.5-3-3-7.3-3h-9.5c0,0,3.1,1.4,3.1,4.3l0,0c0,9,7.2,16.2,16.2,16.2h20.4c11.2,0,20.2-9,20.2-20.2l0,0
		C611.3,726,602.3,716.9,591.2,716.9z"/>
	<g>
		
			<linearGradient id="SVGID_1_" gradientUnits="userSpaceOnUse" x1="471.1369" y1="263.8611" x2="471.1369" y2="198.1761" gradientTransform="matrix(0.5977 0 0 -0.5977 0 875.6438)">
			<stop  offset="0" style="stop-color:#F9BE00"/>
			<stop  offset="0.2346" style="stop-color:#F9BB00"/>
			<stop  offset="0.423" style="stop-color:#F7B101"/>
			<stop  offset="0.5954" style="stop-color:#F4A001"/>
			<stop  offset="0.7582" style="stop-color:#F18802"/>
			<stop  offset="0.9129" style="stop-color:#EC6A03"/>
			<stop  offset="1" style="stop-color:#E95504"/>
		</linearGradient>
		<path fill="url(#SVGID_1_)" d="M280.9,757.5h9.6c0,0-3.1-1.4-3.1-4.3s0-35.1,0-35.1h-14.7v33.2
			C272.7,751.4,272.3,757.5,280.9,757.5z"/>
		
			<linearGradient id="SVGID_2_" gradientUnits="userSpaceOnUse" x1="485.5" y1="234.2435" x2="559.9521" y2="234.2435" gradientTransform="matrix(0.5977 0 0 -0.5977 0 875.6438)">
			<stop  offset="0" style="stop-color:#E95504"/>
			<stop  offset="6.224763e-002" style="stop-color:#EA5B04"/>
			<stop  offset="0.4516" style="stop-color:#EE7B02"/>
			<stop  offset="0.778" style="stop-color:#F18F00"/>
			<stop  offset="1" style="stop-color:#F29600"/>
		</linearGradient>
		<path fill="url(#SVGID_2_)" d="M326.7,755l7.9-7.9c0,0-3.8,3-8.9-2.2c-2-2-31.1-31.1-31.1-31.1l-4.5,16.3l22.8,22.8
			C313,752.9,320.2,761.6,326.7,755z"/>
		
			<linearGradient id="SVGID_3_" gradientUnits="userSpaceOnUse" x1="480.7436" y1="269.2338" x2="559.9799" y2="269.2338" gradientTransform="matrix(0.5977 0 0 -0.5977 0 875.6438)">
			<stop  offset="0" style="stop-color:#F9BE00"/>
			<stop  offset="1" style="stop-color:#ED7700"/>
		</linearGradient>
		<path fill="url(#SVGID_3_)" d="M326.7,693.5c-6.6-6.6-13.7,2.2-13.7,2.2l-23.5,23.4c-4.8,5.7-0.1,10.3-0.1,10.3l5.2,5.2l0,0
			l3.8,3.8c-2.8-3.9,0.4-7.9,0.4-7.9l0,0c8.1-8.1,25.3-25.3,27-26.9c5.1-5.2,8.9-2.2,8.9-2.2L326.7,693.5z"/>
		
			<linearGradient id="SVGID_4_" gradientUnits="userSpaceOnUse" x1="465.9569" y1="308.2398" x2="465.9569" y2="239.0434" gradientTransform="matrix(0.5977 0 0 -0.5977 0 875.6438)">
			<stop  offset="0" style="stop-color:#F9BE00"/>
			<stop  offset="1" style="stop-color:#E95504"/>
		</linearGradient>
		<path fill="url(#SVGID_4_)" d="M272.7,733.2c0,0,0-35,0-37.9s-3.1-4.3-3.1-4.3h9.6c8.6,0,8.2,6.1,8.2,6.1v26.4
			C287.4,723.5,288.1,733.2,272.7,733.2z"/>
	</g>
	
		<linearGradient id="SVGID_5_" gradientUnits="userSpaceOnUse" x1="552.6183" y1="269.8982" x2="552.6183" y2="236.1602" gradientTransform="matrix(0.5977 0 0 -0.5977 0 875.6438)">
		<stop  offset="0" style="stop-color:#F9BE00"/>
		<stop  offset="1" style="stop-color:#ED7700"/>
	</linearGradient>
	<polygon fill="url(#SVGID_5_)" points="330.3,713.7 340.8,724.3 330.3,734.8 319.8,724.3 	"/>
	<rect x="269.5" y="691" fill="none" width="65.1" height="66.5"/>
	<g>
		<g>
			<path fill="#595758" d="M446.6,757.4c-17,0-31-13.9-31-31c0-17,13.9-31,31-31c17,0,31,13.9,31,31S463.7,757.4,446.6,757.4z
				 M446.6,710.2c-9,0-16.3,7.3-16.3,16.3s7.3,16.3,16.3,16.3s16.3-7.3,16.3-16.3S455.6,710.2,446.6,710.2z"/>
		</g>
		<path fill="#595758" d="M471.1,757.4h9.6c0,0-3.1-1.4-3.1-4.3c0-2.9,0-25.8,0-25.8h-14.7v24C462.8,751.2,462.5,757.4,471.1,757.4z
			"/>
	</g>
	<g>
		<g>
			<path fill="#595758" d="M514.6,757.4c-17,0-31-13.9-31-31c0-17,13.9-31,31-31c17,0,31,13.9,31,31S531.7,757.4,514.6,757.4z
				 M514.6,710.2c-9,0-16.3,7.3-16.3,16.3s7.3,16.3,16.3,16.3s16.3-7.3,16.3-16.3C530.9,717.5,523.5,710.2,514.6,710.2z"/>
		</g>
		<path fill="#595758" d="M539,757.4h9.6c0,0-3.1-1.4-3.1-4.3c0-2.9,0-25.8,0-25.8h-14.7v24C530.8,751.2,530.4,757.4,539,757.4z"/>
	</g>
</g>
<g>
	<g>
		
			<linearGradient id="SVGID_6_" gradientUnits="userSpaceOnUse" x1="343.9" y1="262.4123" x2="363.9" y2="262.4123" gradientTransform="matrix(0.5977 0 0 -0.5977 0 875.6438)">
			<stop  offset="0" style="stop-color:#F9BE00"/>
			<stop  offset="1" style="stop-color:#ED7700"/>
		</linearGradient>
		<polygon fill="url(#SVGID_6_)" points="208.6,744.8 205.5,744.2 214.4,692.8 217.5,693.4 		"/>
	</g>
	<g>
		
			<linearGradient id="SVGID_7_" gradientUnits="userSpaceOnUse" x1="16.8981" y1="241.0805" x2="49.4416" y2="241.0805" gradientTransform="matrix(0.5977 0 0 -0.5977 0 875.6438)">
			<stop  offset="0" style="stop-color:#F9BE00"/>
			<stop  offset="1" style="stop-color:#ED7700"/>
		</linearGradient>
		<polygon fill="url(#SVGID_7_)" points="26.7,751.5 10.1,712.9 13,711.6 29.5,750.3 		"/>
	</g>
	<g>
		
			<linearGradient id="SVGID_8_" gradientUnits="userSpaceOnUse" x1="71.4405" y1="301.2277" x2="362.2219" y2="301.2277" gradientTransform="matrix(0.5977 0 0 -0.5977 0 875.6438)">
			<stop  offset="0" style="stop-color:#F9BE00"/>
			<stop  offset="1" style="stop-color:#ED7700"/>
		</linearGradient>
		<polygon fill="url(#SVGID_8_)" points="110.6,736.7 42.7,656.5 45.1,654.5 111.5,733 215.3,691.6 216.5,694.6 		"/>
	</g>
	<g>
		
			<linearGradient id="SVGID_9_" gradientUnits="userSpaceOnUse" x1="18.7385" y1="323.9816" x2="254.6428" y2="323.9816" gradientTransform="matrix(0.5977 0 0 -0.5977 0 875.6438)">
			<stop  offset="0" style="stop-color:#F9BE00"/>
			<stop  offset="1" style="stop-color:#ED7700"/>
		</linearGradient>
		<polygon fill="url(#SVGID_9_)" points="116.4,733.8 11.2,713.8 11.8,710.8 114.3,730.2 149.2,630.2 152.2,631.3 		"/>
	</g>
	<g>
		
			<linearGradient id="SVGID_10_" gradientUnits="userSpaceOnUse" x1="130.1656" y1="294.5354" x2="197.5908" y2="294.5354" gradientTransform="matrix(0.5977 0 0 -0.5977 0 875.6438)">
			<stop  offset="0" style="stop-color:#F9BE00"/>
			<stop  offset="1" style="stop-color:#ED7700"/>
		</linearGradient>
		<polygon fill="url(#SVGID_10_)" points="115.3,732.7 77.8,668.1 80.5,666.5 118.1,731.2 		"/>
	</g>
	
		<linearGradient id="SVGID_11_" gradientUnits="userSpaceOnUse" x1="33.7962" y1="240.3276" x2="356.7007" y2="240.3276" gradientTransform="matrix(0.5977 0 0 -0.5977 0 875.6438)">
		<stop  offset="0" style="stop-color:#F9BE00"/>
		<stop  offset="1" style="stop-color:#ED7700"/>
	</linearGradient>
	<path fill="url(#SVGID_11_)" d="M213.2,753.4c0-15.5-10.7-28.4-25.1-32c-0.6-24.3-20.4-43.7-44.8-43.7c-14.3,0-27,6.7-35.2,17.1
		c-4.6-6-11.8-9.8-19.9-9.8C74.3,685,63,696.3,63,710.2c0,1.2,0.1,2.4,0.2,3.6c-2.1-0.4-4.3-0.6-6.5-0.6
		c-20.2,0-36.5,16.4-36.5,36.6c0,20.2,16.4,36.5,36.5,36.5h123.7C198.6,786.2,213.2,771.5,213.2,753.4L213.2,753.4z"/>
	<g>
		
			<linearGradient id="SVGID_12_" gradientUnits="userSpaceOnUse" x1="17.0654" y1="342.3855" x2="363.0584" y2="342.3855" gradientTransform="matrix(0.5977 0 0 -0.5977 0 875.6438)">
			<stop  offset="0" style="stop-color:#F9BE00"/>
			<stop  offset="1" style="stop-color:#ED7700"/>
		</linearGradient>
		<polygon fill="url(#SVGID_12_)" points="12.9,713.1 10.2,711.5 43.2,653.6 79,665.6 151,628.9 217,692 214.9,694.2 150.4,632.7 
			79.3,669 44.6,657.3 		"/>
	</g>
	
		<linearGradient id="SVGID_13_" gradientUnits="userSpaceOnUse" x1="0.3" y1="273.2873" x2="38.3" y2="273.2873" gradientTransform="matrix(0.5977 0 0 -0.5977 0 875.6438)">
		<stop  offset="0" style="stop-color:#F9BE00"/>
		<stop  offset="1" style="stop-color:#ED7700"/>
	</linearGradient>
	<circle fill="url(#SVGID_13_)" cx="11.5" cy="712.3" r="11.4"/>
	
		<linearGradient id="SVGID_14_" gradientUnits="userSpaceOnUse" x1="113.455" y1="348.5759" x2="151.455" y2="348.5759" gradientTransform="matrix(0.5977 0 0 -0.5977 0 875.6438)">
		<stop  offset="0" style="stop-color:#F9BE00"/>
		<stop  offset="1" style="stop-color:#ED7700"/>
	</linearGradient>
	<circle fill="url(#SVGID_14_)" cx="79.1" cy="667.3" r="11.4"/>
	
		<linearGradient id="SVGID_15_" gradientUnits="userSpaceOnUse" x1="341.4" y1="305.4105" x2="381.1044" y2="305.4105" gradientTransform="matrix(0.5977 0 0 -0.5977 0 875.6438)">
		<stop  offset="0" style="stop-color:#F9BE00"/>
		<stop  offset="1" style="stop-color:#ED7700"/>
	</linearGradient>
	<circle fill="url(#SVGID_15_)" cx="215.9" cy="693.1" r="11.9"/>
	
		<linearGradient id="SVGID_16_" gradientUnits="userSpaceOnUse" x1="232.3" y1="409.6433" x2="272.0043" y2="409.6433" gradientTransform="matrix(0.5977 0 0 -0.5977 0 875.6438)">
		<stop  offset="0" style="stop-color:#F9BE00"/>
		<stop  offset="1" style="stop-color:#ED7700"/>
	</linearGradient>
	<circle fill="url(#SVGID_16_)" cx="150.7" cy="630.8" r="11.9"/>
	
		<linearGradient id="SVGID_17_" gradientUnits="userSpaceOnUse" x1="53.5817" y1="368.3182" x2="93.286" y2="368.3182" gradientTransform="matrix(0.5977 0 0 -0.5977 0 875.6438)">
		<stop  offset="0" style="stop-color:#F9BE00"/>
		<stop  offset="1" style="stop-color:#ED7700"/>
	</linearGradient>
	<circle fill="url(#SVGID_17_)" cx="43.9" cy="655.5" r="11.9"/>
	<g>
		<path fill="#FFFFFF" d="M114.8,734.5L114.8,734.5l-5.1-6l-0.2-0.2c-6.3-6-13.1-8.8-20.7-8.8c-13.9,0-25.2,11.3-25.2,25.2
			s11.3,25.2,25.2,25.2c7.6,0,14.4-2.9,20.7-8.8l0.2-0.2l3.2-3.7l-7.2-8.5l-3.9,4.6c-4.2,3.9-8.2,5.7-13,5.7
			c-7.8,0-14.2-6.4-14.2-14.2s6.4-14.2,14.2-14.2c4.7,0,8.7,1.7,13,5.7l6.3,7.4l0,0l8.2,9.7l0,0l0.6,0.7v-16.9L114.8,734.5z"/>
	</g>
	<g>
		<path fill="#FFFFFF" d="M118.7,756.1L118.7,756.1l5.1,6l0.2,0.2c6.3,6,13.1,8.8,20.7,8.8c13.9,0,25.2-11.3,25.2-25.2
			s-11.3-25.2-25.2-25.2c-7.6,0-14.4,2.9-20.7,8.8l-0.2,0.2l-3.2,3.7l7.2,8.5l3.9-4.6c4.2-3.9,8.2-5.7,13-5.7
			c7.8,0,14.2,6.4,14.2,14.2s-6.4,14.2-14.2,14.2c-4.7,0-8.7-1.7-13-5.7l-6.2-7.2l0,0l-8.2-9.7l0,0l-0.6-0.7v16.9L118.7,756.1z"/>
	</g>
</g>
</svg>
