<?xml version="1.0" encoding="utf-8"?>
<!-- Generator: Adobe Illustrator 17.1.0, SVG Export Plug-In . SVG Version: 6.00 Build 0)  -->
<!DOCTYPE svg PUBLIC "-//W3C//DTD SVG 1.1//EN" "http://www.w3.org/Graphics/SVG/1.1/DTD/svg11.dtd">
<svg version="1.1" id="图层_1" xmlns="http://www.w3.org/2000/svg" xmlns:xlink="http://www.w3.org/1999/xlink" x="0px" y="0px"
	 viewBox="0 0 166 64" enable-background="new 0 0 166 64" xml:space="preserve">
<g>
	<g>
		<path fill="#FFFFFF" d="M98.8,34.7h-3.7c-0.6,0-1.1-0.5-1.1-1.1l0,0c0-0.6,0.5-1.1,1.1-1.1c1.1,0,2.3,0,3.3,0
			c0.4,0,0.7,0.2,0.9,0.5c0.2,0.4,0.6,0.6,1.4,0.6h1.8c0,0-0.6-0.4-0.6-0.8l0,0c0-1.7-1.4-3.1-3.1-3.1h-3.8c-2.1,0-3.9,1.7-3.9,3.9
			l0,0c0,2.1,1.7,3.9,3.9,3.9c0.9,0,2.6,0,3.7,0c0.6,0,1.1,0.5,1.1,1.1l0,0c0,0.6-0.5,1.1-1.1,1.1c-1.1,0-2.3,0-3.4,0
			c-0.4,0-0.7-0.2-0.9-0.5c-0.2-0.4-0.6-0.6-1.4-0.6h-1.8c0,0,0.6,0.4,0.6,0.8l0,0c0,1.7,1.4,3.1,3.1,3.1h3.9c2.1,0,3.9-1.7,3.9-3.9
			l0,0C102.7,36.5,100.9,34.7,98.8,34.7z"/>
		<path fill="#FFFFFF" d="M137.5,34.7h-3.7c-0.6,0-1.1-0.5-1.1-1.1l0,0c0-0.6,0.5-1.1,1.1-1.1c1.1,0,2.3,0,3.3,0
			c0.4,0,0.7,0.2,0.9,0.5c0.2,0.4,0.6,0.6,1.4,0.6h1.8c0,0-0.6-0.4-0.6-0.8l0,0c0-1.7-1.4-3.1-3.1-3.1h-3.8c-2.1,0-3.9,1.7-3.9,3.9
			l0,0c0,2.1,1.7,3.9,3.9,3.9c0.9,0,2.6,0,3.7,0c0.6,0,1.1,0.5,1.1,1.1l0,0c0,0.6-0.5,1.1-1.1,1.1c-1.1,0-2.3,0-3.4,0
			c-0.4,0-0.7-0.2-0.9-0.5c-0.2-0.4-0.6-0.6-1.4-0.6h-1.8c0,0,0.6,0.4,0.6,0.8l0,0c0,1.7,1.4,3.1,3.1,3.1h3.9c2.1,0,3.9-1.7,3.9-3.9
			l0,0C141.3,36.5,139.5,34.7,137.5,34.7z"/>
		<g>
			
				<linearGradient id="SVGID_1_" gradientUnits="userSpaceOnUse" x1="-15.7121" y1="-92.5625" x2="-15.7121" y2="-84.9184" gradientTransform="matrix(0.9853 0 0 0.9853 93.4603 126.1821)">
				<stop  offset="0" style="stop-color:#F9BE00"/>
				<stop  offset="0.2346" style="stop-color:#F9BB00"/>
				<stop  offset="0.423" style="stop-color:#F7B101"/>
				<stop  offset="0.5954" style="stop-color:#F4A001"/>
				<stop  offset="0.7582" style="stop-color:#F18802"/>
				<stop  offset="0.9129" style="stop-color:#EC6A03"/>
				<stop  offset="1" style="stop-color:#E95504"/>
			</linearGradient>
			<path fill="url(#SVGID_1_)" d="M77.9,42.5h1.8c0,0-0.6-0.4-0.6-0.8c0-0.5,0-6.8,0-6.8h-2.8v6.3C76.4,41.4,76.3,42.5,77.9,42.5z"
				/>
			
				<linearGradient id="SVGID_2_" gradientUnits="userSpaceOnUse" x1="-13.9681" y1="-89.0813" x2="-5.3085" y2="-89.0813" gradientTransform="matrix(0.9853 0 0 0.9853 93.4603 126.1821)">
				<stop  offset="0" style="stop-color:#E95504"/>
				<stop  offset="6.224763e-002" style="stop-color:#EA5B04"/>
				<stop  offset="0.4516" style="stop-color:#EE7B02"/>
				<stop  offset="0.778" style="stop-color:#F18F00"/>
				<stop  offset="1" style="stop-color:#F29600"/>
			</linearGradient>
			<path fill="url(#SVGID_2_)" d="M86.7,42.1l1.5-1.5c0,0-0.7,0.6-1.7-0.4c-0.4-0.4-5.9-5.9-5.9-5.9l-0.9,3.1l4.4,4.4
				C84.1,41.7,85.5,43.4,86.7,42.1z"/>
			
				<linearGradient id="SVGID_3_" gradientUnits="userSpaceOnUse" x1="-14.5383" y1="-93.1966" x2="-5.3113" y2="-93.1966" gradientTransform="matrix(0.9853 0 0 0.9853 93.4603 126.1821)">
				<stop  offset="0" style="stop-color:#F9BE00"/>
				<stop  offset="1" style="stop-color:#ED7700"/>
			</linearGradient>
			<path fill="url(#SVGID_3_)" d="M86.7,30.3c-1.3-1.3-2.6,0.4-2.6,0.4l-4.5,4.5c-0.9,1.1,0,2,0,2l0.9,0.9l0,0l0.7,0.7
				c-0.5-0.7,0.1-1.5,0.1-1.5l0,0c1.5-1.5,4.9-4.9,5.2-5.1c0.9-0.9,1.7-0.4,1.7-0.4L86.7,30.3z"/>
			
				<linearGradient id="SVGID_4_" gradientUnits="userSpaceOnUse" x1="-16.1932" y1="-97.7304" x2="-16.1932" y2="-89.6726" gradientTransform="matrix(0.9853 0 0 0.9853 93.4603 126.1821)">
				<stop  offset="0" style="stop-color:#F9BE00"/>
				<stop  offset="1" style="stop-color:#E95504"/>
			</linearGradient>
			<path fill="url(#SVGID_4_)" d="M76.4,37.8c0,0,0-6.8,0-7.2c0-0.5-0.6-0.8-0.6-0.8h1.8c1.7,0,1.7,1.2,1.7,1.2v5
				C79.1,36,79.3,37.8,76.4,37.8z"/>
		</g>
		
			<linearGradient id="SVGID_5_" gradientUnits="userSpaceOnUse" x1="-6.1504" y1="-93.2656" x2="-6.1504" y2="-89.3368" gradientTransform="matrix(0.9853 0 0 0.9853 93.4603 126.1821)">
			<stop  offset="0" style="stop-color:#F9BE00"/>
			<stop  offset="1" style="stop-color:#ED7700"/>
		</linearGradient>
		<polygon fill="url(#SVGID_5_)" points="87.4,34.1 89.4,36.1 87.4,38.3 85.4,36.1 		"/>
		<rect x="75.7" y="29.9" fill="none" width="12.4" height="12.8"/>
		<g>
			<g>
				<path fill="#FFFFFF" d="M109.8,42.5c-3.2,0-5.9-2.7-5.9-5.9c0-3.2,2.7-5.9,5.9-5.9s5.9,2.7,5.9,5.9
					C115.7,39.8,113,42.5,109.8,42.5z M109.8,33.5c-1.7,0-3.1,1.4-3.1,3.1s1.4,3.1,3.1,3.1s3.1-1.4,3.1-3.1
					C112.9,34.8,111.5,33.5,109.8,33.5z"/>
			</g>
			<path fill="#FFFFFF" d="M114.4,42.5h1.8c0,0-0.6-0.4-0.6-0.8c0-0.5,0-5,0-5h-2.8v4.6C112.8,41.4,112.8,42.5,114.4,42.5z"/>
		</g>
		<g>
			<g>
				<path fill="#FFFFFF" d="M122.8,42.5c-3.2,0-5.9-2.7-5.9-5.9c0-3.2,2.7-5.9,5.9-5.9s5.9,2.7,5.9,5.9
					C128.8,39.8,126,42.5,122.8,42.5z M122.8,33.5c-1.7,0-3.1,1.4-3.1,3.1s1.4,3.1,3.1,3.1c1.7,0,3.1-1.4,3.1-3.1
					C125.9,34.8,124.5,33.5,122.8,33.5z"/>
			</g>
			<path fill="#FFFFFF" d="M127.5,42.5h1.8c0,0-0.6-0.4-0.6-0.8c0-0.5,0-5,0-5h-2.8v4.6C125.8,41.4,125.8,42.5,127.5,42.5z"/>
		</g>
	</g>
	<g>
		<g>
			
				<linearGradient id="SVGID_6_" gradientUnits="userSpaceOnUse" x1="-30.4648" y1="-92.4018" x2="-28.1358" y2="-92.4018" gradientTransform="matrix(0.9853 0 0 0.9853 93.4603 126.1821)">
				<stop  offset="0" style="stop-color:#F9BE00"/>
				<stop  offset="1" style="stop-color:#ED7700"/>
			</linearGradient>
			<polygon fill="url(#SVGID_6_)" points="64.1,40.2 63.5,40.1 65.1,30.1 65.8,30.2 			"/>
		</g>
		<g>
			
				<linearGradient id="SVGID_7_" gradientUnits="userSpaceOnUse" x1="-68.5439" y1="-89.9362" x2="-64.7542" y2="-89.9362" gradientTransform="matrix(0.9853 0 0 0.9853 93.4603 126.1821)">
				<stop  offset="0" style="stop-color:#F9BE00"/>
				<stop  offset="1" style="stop-color:#ED7700"/>
			</linearGradient>
			<polygon fill="url(#SVGID_7_)" points="29.1,41.4 25.9,34 26.5,33.8 29.6,41.1 			"/>
		</g>
		<g>
			
				<linearGradient id="SVGID_8_" gradientUnits="userSpaceOnUse" x1="-62.1977" y1="-96.9722" x2="-28.3365" y2="-96.9722" gradientTransform="matrix(0.9853 0 0 0.9853 93.4603 126.1821)">
				<stop  offset="0" style="stop-color:#F9BE00"/>
				<stop  offset="1" style="stop-color:#ED7700"/>
			</linearGradient>
			<polygon fill="url(#SVGID_8_)" points="45.2,38.5 32.2,23.2 32.7,22.8 45.4,37.8 65.2,29.9 65.6,30.6 			"/>
		</g>
		<g>
			
				<linearGradient id="SVGID_9_" gradientUnits="userSpaceOnUse" x1="-68.3317" y1="-99.5581" x2="-40.8608" y2="-99.5581" gradientTransform="matrix(0.9853 0 0 0.9853 93.4603 126.1821)">
				<stop  offset="0" style="stop-color:#F9BE00"/>
				<stop  offset="1" style="stop-color:#ED7700"/>
			</linearGradient>
			<polygon fill="url(#SVGID_9_)" points="46.3,38 26.1,34.1 26.3,33.7 45.9,37.3 52.7,18.1 53.3,18.4 			"/>
		</g>
		<g>
			
				<linearGradient id="SVGID_10_" gradientUnits="userSpaceOnUse" x1="-55.354" y1="-96.1303" x2="-47.506" y2="-96.1303" gradientTransform="matrix(0.9853 0 0 0.9853 93.4603 126.1821)">
				<stop  offset="0" style="stop-color:#F9BE00"/>
				<stop  offset="1" style="stop-color:#ED7700"/>
			</linearGradient>
			<polygon fill="url(#SVGID_10_)" points="46,37.8 38.9,25.4 39.5,25.1 46.8,37.6 			"/>
		</g>
		
			<linearGradient id="SVGID_11_" gradientUnits="userSpaceOnUse" x1="-66.5761" y1="-89.9344" x2="-28.9305" y2="-89.9344" gradientTransform="matrix(0.9853 0 0 0.9853 93.4603 126.1821)">
			<stop  offset="0" style="stop-color:#F9BE00"/>
			<stop  offset="1" style="stop-color:#ED7700"/>
		</linearGradient>
		<path fill="url(#SVGID_11_)" d="M64.9,41.7c0-3-2-5.5-4.9-6.2c-0.1-4.6-3.9-8.4-8.7-8.4c-2.7,0-5.2,1.3-6.8,3.3
			c-0.9-1.1-2.3-1.9-3.8-1.9c-2.7,0-4.9,2.3-4.9,4.9c0,0.2,0,0.5,0,0.7C35.6,34,35.1,34,34.8,34c-3.9,0-7,3.1-7,7s3.1,7,7,7h23.7
			C62,48.1,64.9,45.3,64.9,41.7L64.9,41.7z"/>
		<g>
			
				<linearGradient id="SVGID_12_" gradientUnits="userSpaceOnUse" x1="-68.5722" y1="-101.723" x2="-28.2816" y2="-101.723" gradientTransform="matrix(0.9853 0 0 0.9853 93.4603 126.1821)">
				<stop  offset="0" style="stop-color:#F9BE00"/>
				<stop  offset="1" style="stop-color:#ED7700"/>
			</linearGradient>
			<polygon fill="url(#SVGID_12_)" points="26.4,34 25.9,33.8 32.2,22.6 39.2,24.9 52.9,17.9 65.7,30 65.2,30.5 52.8,18.6 
				39.2,25.6 32.5,23.3 			"/>
		</g>
		
			<linearGradient id="SVGID_13_" gradientUnits="userSpaceOnUse" x1="-70.4767" y1="-93.6647" x2="-66.0517" y2="-93.6647" gradientTransform="matrix(0.9853 0 0 0.9853 93.4603 126.1821)">
			<stop  offset="0" style="stop-color:#F9BE00"/>
			<stop  offset="1" style="stop-color:#ED7700"/>
		</linearGradient>
		<circle fill="url(#SVGID_13_)" cx="26.3" cy="33.9" r="2.3"/>
		
			<linearGradient id="SVGID_14_" gradientUnits="userSpaceOnUse" x1="-57.3" y1="-102.4446" x2="-52.8749" y2="-102.4446" gradientTransform="matrix(0.9853 0 0 0.9853 93.4603 126.1821)">
			<stop  offset="0" style="stop-color:#F9BE00"/>
			<stop  offset="1" style="stop-color:#ED7700"/>
		</linearGradient>
		<circle fill="url(#SVGID_14_)" cx="39.2" cy="25.2" r="2.3"/>
		
			<linearGradient id="SVGID_15_" gradientUnits="userSpaceOnUse" x1="-30.756" y1="-97.3931" x2="-26.1324" y2="-97.3931" gradientTransform="matrix(0.9853 0 0 0.9853 93.4603 126.1821)">
			<stop  offset="0" style="stop-color:#F9BE00"/>
			<stop  offset="1" style="stop-color:#ED7700"/>
		</linearGradient>
		<circle fill="url(#SVGID_15_)" cx="65.5" cy="30.2" r="2.3"/>
		
			<linearGradient id="SVGID_16_" gradientUnits="userSpaceOnUse" x1="-43.4606" y1="-109.5407" x2="-38.837" y2="-109.5407" gradientTransform="matrix(0.9853 0 0 0.9853 93.4603 126.1821)">
			<stop  offset="0" style="stop-color:#F9BE00"/>
			<stop  offset="1" style="stop-color:#ED7700"/>
		</linearGradient>
		<circle fill="url(#SVGID_16_)" cx="52.9" cy="18.3" r="2.3"/>
		
			<linearGradient id="SVGID_17_" gradientUnits="userSpaceOnUse" x1="-64.2765" y1="-104.7298" x2="-59.653" y2="-104.7298" gradientTransform="matrix(0.9853 0 0 0.9853 93.4603 126.1821)">
			<stop  offset="0" style="stop-color:#F9BE00"/>
			<stop  offset="1" style="stop-color:#ED7700"/>
		</linearGradient>
		<circle fill="url(#SVGID_17_)" cx="32.4" cy="23" r="2.3"/>
		<g>
			<path fill="#FFFFFF" d="M46,38.2L46,38.2l-0.9-1.1l0,0c-1.2-1.1-2.5-1.7-4-1.7c-2.7,0-4.9,2.3-4.9,4.9s2.3,4.9,4.9,4.9
				c1.5,0,2.8-0.6,4-1.7l0,0l0.6-0.7L44.3,41L43.6,42c-0.8,0.7-1.7,1.1-2.5,1.1c-1.5,0-2.7-1.2-2.7-2.7s1.2-2.7,2.7-2.7
				c0.9,0,1.7,0.4,2.5,1.1l1.2,1.4l0,0l1.7,1.9l0,0l0.1,0.1v-3.2L46,38.2z"/>
		</g>
		<g>
			<path fill="#FFFFFF" d="M46.8,42.3L46.8,42.3l0.9,1.1l0,0c1.2,1.1,2.5,1.7,4,1.7c2.7,0,4.9-2.3,4.9-4.9s-2.3-4.9-4.9-4.9
				c-1.5,0-2.8,0.6-4,1.7l0,0L47,37.8l1.4,1.7l0.7-0.9c0.8-0.7,1.7-1.1,2.5-1.1c1.5,0,2.7,1.2,2.7,2.7S53.2,43,51.6,43
				c-0.9,0-1.7-0.4-2.5-1.1l-1.1-1.4l0,0l-1.5-1.9l0,0l-0.1-0.1v3.2L46.8,42.3z"/>
		</g>
	</g>
</g>
</svg>
