<?xml version="1.0" encoding="utf-8"?>
<!-- Generator: Adobe Illustrator 17.1.0, SVG Export Plug-In . SVG Version: 6.00 Build 0)  -->
<!DOCTYPE svg PUBLIC "-//W3C//DTD SVG 1.1//EN" "http://www.w3.org/Graphics/SVG/1.1/DTD/svg11.dtd">
<svg version="1.1" id="图层_1" xmlns="http://www.w3.org/2000/svg" xmlns:xlink="http://www.w3.org/1999/xlink" x="0px" y="0px"
	 viewBox="0 0 192 50" enable-background="new 0 0 192 50" xml:space="preserve">
<g>
	<g>
		<path fill="#FFFFFF" d="M98.1,27.7h-3.1c-0.5,0-0.9-0.4-0.9-0.9l0,0c0-0.5,0.4-0.9,0.9-0.9c0.9,0,1.9,0,2.8,0
			c0.3,0,0.6,0.2,0.8,0.4c0.2,0.3,0.5,0.5,1.2,0.5h1.5c0,0-0.5-0.3-0.5-0.7l0,0c0-1.4-1.2-2.6-2.6-2.6h-3.2c-1.8,0-3.3,1.4-3.3,3.3
			l0,0c0,1.8,1.4,3.3,3.3,3.3c0.8,0,2.2,0,3.1,0c0.5,0,0.9,0.4,0.9,0.9l0,0c0,0.5-0.4,0.9-0.9,0.9c-0.9,0-1.9,0-2.9,0
			c-0.3,0-0.6-0.2-0.8-0.4c-0.2-0.3-0.5-0.5-1.2-0.5h-1.5c0,0,0.5,0.3,0.5,0.7l0,0c0,1.4,1.2,2.6,2.6,2.6h3.3c1.8,0,3.3-1.4,3.3-3.3
			l0,0C101.3,29.2,99.9,27.7,98.1,27.7z"/>
		<path fill="#FFFFFF" d="M130.7,27.7h-3.1c-0.5,0-0.9-0.4-0.9-0.9l0,0c0-0.5,0.4-0.9,0.9-0.9c0.9,0,1.9,0,2.8,0
			c0.3,0,0.6,0.2,0.8,0.4c0.2,0.3,0.5,0.5,1.2,0.5h1.5c0,0-0.5-0.3-0.5-0.7l0,0c0-1.4-1.2-2.6-2.6-2.6h-3.2c-1.8,0-3.3,1.4-3.3,3.3
			l0,0c0,1.8,1.4,3.3,3.3,3.3c0.8,0,2.2,0,3.1,0c0.5,0,0.9,0.4,0.9,0.9l0,0c0,0.5-0.4,0.9-0.9,0.9c-0.9,0-1.9,0-2.9,0
			c-0.3,0-0.6-0.2-0.8-0.4c-0.2-0.3-0.5-0.5-1.2-0.5h-1.5c0,0,0.5,0.3,0.5,0.7l0,0c0,1.4,1.2,2.6,2.6,2.6h3.3c1.8,0,3.3-1.4,3.3-3.3
			l0,0C134,29.2,132.5,27.7,130.7,27.7z"/>
		<g>
			
				<linearGradient id="SVGID_1_" gradientUnits="userSpaceOnUse" x1="-2.9274" y1="149.7318" x2="-2.9274" y2="143.2813" gradientTransform="matrix(0.9853 0 0 -0.9853 83.4603 175.4471)">
				<stop  offset="0" style="stop-color:#F9BE00"/>
				<stop  offset="0.2346" style="stop-color:#F9BB00"/>
				<stop  offset="0.423" style="stop-color:#F7B101"/>
				<stop  offset="0.5954" style="stop-color:#F4A001"/>
				<stop  offset="0.7582" style="stop-color:#F18802"/>
				<stop  offset="0.9129" style="stop-color:#EC6A03"/>
				<stop  offset="1" style="stop-color:#E95504"/>
			</linearGradient>
			<path fill="url(#SVGID_1_)" d="M80.5,34.3H82c0,0-0.5-0.3-0.5-0.7s0-5.7,0-5.7h-2.4v5.3C79.1,33.3,79.1,34.3,80.5,34.3z"/>
			
				<linearGradient id="SVGID_2_" gradientUnits="userSpaceOnUse" x1="-1.506" y1="146.7977" x2="5.8046" y2="146.7977" gradientTransform="matrix(0.9853 0 0 -0.9853 83.4603 175.4471)">
				<stop  offset="0" style="stop-color:#E95504"/>
				<stop  offset="6.224763e-002" style="stop-color:#EA5B04"/>
				<stop  offset="0.4516" style="stop-color:#EE7B02"/>
				<stop  offset="0.778" style="stop-color:#F18F00"/>
				<stop  offset="1" style="stop-color:#F29600"/>
			</linearGradient>
			<path fill="url(#SVGID_2_)" d="M87.9,33.9l1.3-1.3c0,0-0.6,0.5-1.4-0.3c-0.3-0.3-5-5-5-5l-0.8,2.6l3.7,3.7
				C85.7,33.6,86.8,35,87.9,33.9z"/>
			
				<linearGradient id="SVGID_3_" gradientUnits="userSpaceOnUse" x1="-1.9808" y1="150.23" x2="5.8053" y2="150.23" gradientTransform="matrix(0.9853 0 0 -0.9853 83.4603 175.4471)">
				<stop  offset="0" style="stop-color:#F9BE00"/>
				<stop  offset="1" style="stop-color:#ED7700"/>
			</linearGradient>
			<path fill="url(#SVGID_3_)" d="M87.9,24c-1.1-1.1-2.2,0.3-2.2,0.3l-3.8,3.8c-0.8,0.9,0,1.7,0,1.7l0.8,0.8l0,0l0.6,0.6
				c-0.4-0.6,0.1-1.3,0.1-1.3l0,0c1.3-1.3,4.1-4.1,4.4-4.3c0.8-0.8,1.4-0.3,1.4-0.3L87.9,24z"/>
			
				<linearGradient id="SVGID_4_" gradientUnits="userSpaceOnUse" x1="-3.4417" y1="154.0927" x2="-3.4417" y2="147.2931" gradientTransform="matrix(0.9853 0 0 -0.9853 83.4603 175.4471)">
				<stop  offset="0" style="stop-color:#F9BE00"/>
				<stop  offset="1" style="stop-color:#E95504"/>
			</linearGradient>
			<path fill="url(#SVGID_4_)" d="M79.1,30.3c0,0,0-5.7,0-6.1s-0.5-0.7-0.5-0.7h1.5c1.4,0,1.4,1,1.4,1v4.2
				C81.5,28.8,81.7,30.3,79.1,30.3z"/>
		</g>
		
			<linearGradient id="SVGID_5_" gradientUnits="userSpaceOnUse" x1="5.0717" y1="150.3251" x2="5.0717" y2="147.0098" gradientTransform="matrix(0.9853 0 0 -0.9853 83.4603 175.4471)">
			<stop  offset="0" style="stop-color:#F9BE00"/>
			<stop  offset="1" style="stop-color:#ED7700"/>
		</linearGradient>
		<polygon fill="url(#SVGID_5_)" points="88.5,27.2 90.2,28.9 88.5,30.7 86.8,28.9 		"/>
		<rect x="78.6" y="23.6" fill="none" width="10.5" height="10.8"/>
		<g>
			<g>
				<path fill="#FFFFFF" d="M107.4,34.3c-2.7,0-5-2.3-5-5s2.3-5,5-5c2.7,0,5,2.3,5,5S110.1,34.3,107.4,34.3z M107.4,26.7
					c-1.4,0-2.6,1.2-2.6,2.6c0,1.4,1.2,2.6,2.6,2.6s2.6-1.2,2.6-2.6C110,27.8,108.8,26.7,107.4,26.7z"/>
			</g>
			<path fill="#FFFFFF" d="M111.3,34.3h1.5c0,0-0.5-0.3-0.5-0.7s0-4.2,0-4.2h-2.4v3.9C109.9,33.3,109.9,34.3,111.3,34.3z"/>
		</g>
		<g>
			<g>
				<path fill="#FFFFFF" d="M118.4,34.3c-2.7,0-5-2.3-5-5s2.3-5,5-5c2.7,0,5,2.3,5,5S121.1,34.3,118.4,34.3z M118.4,26.7
					c-1.4,0-2.6,1.2-2.6,2.6c0,1.4,1.2,2.6,2.6,2.6c1.4,0,2.6-1.2,2.6-2.6C121,27.8,119.8,26.7,118.4,26.7z"/>
			</g>
			<path fill="#FFFFFF" d="M122.3,34.3h1.5c0,0-0.5-0.3-0.5-0.7s0-4.2,0-4.2h-2.4v3.9C120.9,33.3,120.9,34.3,122.3,34.3z"/>
		</g>
	</g>
	<g>
		<g>
			
				<linearGradient id="SVGID_6_" gradientUnits="userSpaceOnUse" x1="-15.4203" y1="149.5894" x2="-13.455" y2="149.5894" gradientTransform="matrix(0.9853 0 0 -0.9853 83.4603 175.4471)">
				<stop  offset="0" style="stop-color:#F9BE00"/>
				<stop  offset="1" style="stop-color:#ED7700"/>
			</linearGradient>
			<polygon fill="url(#SVGID_6_)" points="68.8,32.3 68.3,32.2 69.7,23.8 70.2,23.9 			"/>
		</g>
		<g>
			
				<linearGradient id="SVGID_7_" gradientUnits="userSpaceOnUse" x1="-47.5531" y1="147.5252" x2="-44.3552" y2="147.5252" gradientTransform="matrix(0.9853 0 0 -0.9853 83.4603 175.4471)">
				<stop  offset="0" style="stop-color:#F9BE00"/>
				<stop  offset="1" style="stop-color:#ED7700"/>
			</linearGradient>
			<polygon fill="url(#SVGID_7_)" points="39.3,33.3 36.6,27.1 37.1,26.9 39.7,33.1 			"/>
		</g>
		<g>
			
				<linearGradient id="SVGID_8_" gradientUnits="userSpaceOnUse" x1="-42.1935" y1="153.4167" x2="-13.6199" y2="153.4167" gradientTransform="matrix(0.9853 0 0 -0.9853 83.4603 175.4471)">
				<stop  offset="0" style="stop-color:#F9BE00"/>
				<stop  offset="1" style="stop-color:#ED7700"/>
			</linearGradient>
			<polygon fill="url(#SVGID_8_)" points="52.9,30.9 41.8,18 42.3,17.6 53,30.3 69.8,23.6 70.1,24.2 			"/>
		</g>
		<g>
			
				<linearGradient id="SVGID_9_" gradientUnits="userSpaceOnUse" x1="-47.3924" y1="155.6099" x2="-24.2113" y2="155.6099" gradientTransform="matrix(0.9853 0 0 -0.9853 83.4603 175.4471)">
				<stop  offset="0" style="stop-color:#F9BE00"/>
				<stop  offset="1" style="stop-color:#ED7700"/>
			</linearGradient>
			<polygon fill="url(#SVGID_9_)" points="53.8,30.5 36.8,27.2 36.8,26.8 53.5,29.9 59.1,13.7 59.6,13.9 			"/>
		</g>
		<g>
			
				<linearGradient id="SVGID_10_" gradientUnits="userSpaceOnUse" x1="-36.4229" y1="152.7286" x2="-29.8004" y2="152.7286" gradientTransform="matrix(0.9853 0 0 -0.9853 83.4603 175.4471)">
				<stop  offset="0" style="stop-color:#F9BE00"/>
				<stop  offset="1" style="stop-color:#ED7700"/>
			</linearGradient>
			<polygon fill="url(#SVGID_10_)" points="53.6,30.3 47.6,19.8 48,19.6 54.1,30.1 			"/>
		</g>
		
			<linearGradient id="SVGID_11_" gradientUnits="userSpaceOnUse" x1="-45.8926" y1="147.4392" x2="-14.1561" y2="147.4392" gradientTransform="matrix(0.9853 0 0 -0.9853 83.4603 175.4471)">
			<stop  offset="0" style="stop-color:#F9BE00"/>
			<stop  offset="1" style="stop-color:#ED7700"/>
		</linearGradient>
		<path fill="url(#SVGID_11_)" d="M69.5,33.6c0-2.5-1.7-4.6-4.1-5.2c-0.1-3.9-3.3-7.1-7.3-7.1c-2.3,0-4.4,1.1-5.7,2.8
			c-0.8-0.9-1.9-1.6-3.2-1.6c-2.3,0-4.1,1.9-4.1,4.1c0,0.2,0,0.4,0,0.6c-0.3-0.1-0.7-0.1-1-0.1c-3.3,0-5.9,2.6-5.9,5.9
			c0,3.3,2.6,5.9,5.9,5.9h20C67.1,39,69.5,36.6,69.5,33.6L69.5,33.6z"/>
		<g>
			
				<linearGradient id="SVGID_12_" gradientUnits="userSpaceOnUse" x1="-47.5644" y1="157.459" x2="-13.5654" y2="157.459" gradientTransform="matrix(0.9853 0 0 -0.9853 83.4603 175.4471)">
				<stop  offset="0" style="stop-color:#F9BE00"/>
				<stop  offset="1" style="stop-color:#ED7700"/>
			</linearGradient>
			<polygon fill="url(#SVGID_12_)" points="37,27.1 36.6,26.9 41.9,17.5 47.8,19.4 59.4,13.5 70.2,23.7 69.8,24.1 59.3,14.1 
				47.8,20 42.2,18.1 			"/>
		</g>
		
			<linearGradient id="SVGID_13_" gradientUnits="userSpaceOnUse" x1="-49.1841" y1="150.6215" x2="-45.4501" y2="150.6215" gradientTransform="matrix(0.9853 0 0 -0.9853 83.4603 175.4471)">
			<stop  offset="0" style="stop-color:#F9BE00"/>
			<stop  offset="1" style="stop-color:#ED7700"/>
		</linearGradient>
		<circle fill="url(#SVGID_13_)" cx="36.8" cy="27" r="1.9"/>
		
			<linearGradient id="SVGID_14_" gradientUnits="userSpaceOnUse" x1="-38.065" y1="158.0181" x2="-34.3309" y2="158.0181" gradientTransform="matrix(0.9853 0 0 -0.9853 83.4603 175.4471)">
			<stop  offset="0" style="stop-color:#F9BE00"/>
			<stop  offset="1" style="stop-color:#ED7700"/>
		</linearGradient>
		<circle fill="url(#SVGID_14_)" cx="47.8" cy="19.7" r="1.9"/>
		
			<linearGradient id="SVGID_15_" gradientUnits="userSpaceOnUse" x1="-15.666" y1="153.8037" x2="-11.7644" y2="153.8037" gradientTransform="matrix(0.9853 0 0 -0.9853 83.4603 175.4471)">
			<stop  offset="0" style="stop-color:#F9BE00"/>
			<stop  offset="1" style="stop-color:#ED7700"/>
		</linearGradient>
		<circle fill="url(#SVGID_15_)" cx="70" cy="23.9" r="1.9"/>
		
			<linearGradient id="SVGID_16_" gradientUnits="userSpaceOnUse" x1="-26.3867" y1="164.0385" x2="-22.4851" y2="164.0385" gradientTransform="matrix(0.9853 0 0 -0.9853 83.4603 175.4471)">
			<stop  offset="0" style="stop-color:#F9BE00"/>
			<stop  offset="1" style="stop-color:#ED7700"/>
		</linearGradient>
		<circle fill="url(#SVGID_16_)" cx="59.4" cy="13.8" r="1.9"/>
		
			<linearGradient id="SVGID_17_" gradientUnits="userSpaceOnUse" x1="-43.9521" y1="159.9962" x2="-40.0506" y2="159.9962" gradientTransform="matrix(0.9853 0 0 -0.9853 83.4603 175.4471)">
			<stop  offset="0" style="stop-color:#F9BE00"/>
			<stop  offset="1" style="stop-color:#ED7700"/>
		</linearGradient>
		<circle fill="url(#SVGID_17_)" cx="42.1" cy="17.8" r="1.9"/>
		<g>
			<path fill="#FFFFFF" d="M53.5,30.6L53.5,30.6l-0.8-0.9l0,0c-1-0.9-2.1-1.4-3.4-1.4c-2.3,0-4.1,1.9-4.1,4.1s1.9,4.1,4.1,4.1
				c1.3,0,2.4-0.5,3.4-1.4l0,0l0.5-0.6L52.1,33l-0.6,0.8c-0.7,0.6-1.4,0.9-2.1,0.9c-1.3,0-2.3-1-2.3-2.3s1-2.3,2.3-2.3
				c0.8,0,1.4,0.3,2.1,0.9l1,1.2l0,0l1.4,1.6l0,0l0.1,0.1v-2.7L53.5,30.6z"/>
		</g>
		<g>
			<path fill="#FFFFFF" d="M54.2,34.1L54.2,34.1l0.8,0.9l0,0c1,0.9,2.1,1.4,3.4,1.4c2.3,0,4.1-1.9,4.1-4.1s-1.9-4.1-4.1-4.1
				c-1.3,0-2.4,0.5-3.4,1.4l0,0l-0.6,0.7l1.2,1.4l0.6-0.8c0.7-0.6,1.4-0.9,2.1-0.9c1.3,0,2.3,1,2.3,2.3s-1,2.4-2.3,2.4
				c-0.8,0-1.4-0.3-2.1-0.9l-0.9-1.2l0,0L54,31l0,0l-0.1-0.1v2.7L54.2,34.1z"/>
		</g>
	</g>
</g>
</svg>
