<?xml version="1.0" encoding="utf-8"?>
<!-- Generator: Adobe Illustrator 17.1.0, SVG Export Plug-In . SVG Version: 6.00 Build 0)  -->
<!DOCTYPE svg PUBLIC "-//W3C//DTD SVG 1.1//EN" "http://www.w3.org/Graphics/SVG/1.1/DTD/svg11.dtd">
<svg version="1.1" id="图层_1" xmlns="http://www.w3.org/2000/svg" xmlns:xlink="http://www.w3.org/1999/xlink" x="0px" y="0px"
	 viewBox="0 0 44 44" enable-background="new 0 0 44 44" xml:space="preserve">
<g>
	<g>
		
			<linearGradient id="SVGID_1_" gradientUnits="userSpaceOnUse" x1="-62.0006" y1="140.8738" x2="-59.0059" y2="140.8738" gradientTransform="matrix(0.7698 0 0 -0.7698 87.365 133.5285)">
			<stop  offset="0" style="stop-color:#F9BE00"/>
			<stop  offset="1" style="stop-color:#ED7700"/>
		</linearGradient>
		<polygon fill="url(#SVGID_1_)" points="40.3,30.2 39.7,30.1 41.3,20 42,20.1 		"/>
	</g>
	<g>
		
			<linearGradient id="SVGID_2_" gradientUnits="userSpaceOnUse" x1="-110.9644" y1="137.6765" x2="-106.0915" y2="137.6765" gradientTransform="matrix(0.7698 0 0 -0.7698 87.365 133.5285)">
			<stop  offset="0" style="stop-color:#F9BE00"/>
			<stop  offset="1" style="stop-color:#ED7700"/>
		</linearGradient>
		<polygon fill="url(#SVGID_2_)" points="5.1,31.4 1.9,23.9 2.5,23.7 5.6,31.1 		"/>
	</g>
	<g>
		
			<linearGradient id="SVGID_3_" gradientUnits="userSpaceOnUse" x1="-102.774" y1="146.7464" x2="-59.2338" y2="146.7464" gradientTransform="matrix(0.7698 0 0 -0.7698 87.365 133.5285)">
			<stop  offset="0" style="stop-color:#F9BE00"/>
			<stop  offset="1" style="stop-color:#ED7700"/>
		</linearGradient>
		<polygon fill="url(#SVGID_3_)" points="21.3,28.5 8.3,13.1 8.8,12.7 21.5,27.8 41.4,19.8 41.8,20.5 		"/>
	</g>
	<g>
		
			<linearGradient id="SVGID_4_" gradientUnits="userSpaceOnUse" x1="-110.6916" y1="150.1395" x2="-75.3683" y2="150.1395" gradientTransform="matrix(0.7698 0 0 -0.7698 87.365 133.5285)">
			<stop  offset="0" style="stop-color:#F9BE00"/>
			<stop  offset="1" style="stop-color:#ED7700"/>
		</linearGradient>
		<polygon fill="url(#SVGID_4_)" points="22.4,28 2.1,24 2.3,23.6 22,27.2 28.8,8 29.4,8.3 		"/>
	</g>
	<g>
		
			<linearGradient id="SVGID_5_" gradientUnits="userSpaceOnUse" x1="-94.0043" y1="145.7024" x2="-83.9129" y2="145.7024" gradientTransform="matrix(0.7698 0 0 -0.7698 87.365 133.5285)">
			<stop  offset="0" style="stop-color:#F9BE00"/>
			<stop  offset="1" style="stop-color:#ED7700"/>
		</linearGradient>
		<polygon fill="url(#SVGID_5_)" points="22.1,27.8 15,15.3 15.6,15 22.9,27.5 		"/>
	</g>
	
		<linearGradient id="SVGID_6_" gradientUnits="userSpaceOnUse" x1="-108.4341" y1="137.74" x2="-60.0176" y2="137.74" gradientTransform="matrix(0.7698 0 0 -0.7698 87.365 133.5285)">
		<stop  offset="0" style="stop-color:#F9BE00"/>
		<stop  offset="1" style="stop-color:#ED7700"/>
	</linearGradient>
	<path fill="url(#SVGID_6_)" d="M41.1,31.7c0-3-2-5.5-4.9-6.2c-0.1-4.6-3.9-8.4-8.7-8.4c-2.7,0-5.2,1.3-6.8,3.3
		c-0.9-1.1-2.3-1.9-3.8-1.9c-2.7,0-4.9,2.3-4.9,4.9c0,0.2,0,0.5,0,0.7c-0.2-0.1-0.7-0.1-1-0.1c-3.9,0-7,3.1-7,7s3.1,7,7,7h23.8
		C38.2,38.1,41.1,35.3,41.1,31.7L41.1,31.7z"/>
	<g>
		
			<linearGradient id="SVGID_7_" gradientUnits="userSpaceOnUse" x1="-110.9957" y1="152.8801" x2="-59.1883" y2="152.8801" gradientTransform="matrix(0.7698 0 0 -0.7698 87.365 133.5285)">
			<stop  offset="0" style="stop-color:#F9BE00"/>
			<stop  offset="1" style="stop-color:#ED7700"/>
		</linearGradient>
		<polygon fill="url(#SVGID_7_)" points="2.4,23.9 1.9,23.7 8.3,12.5 15.3,14.8 29,7.8 41.9,19.9 41.4,20.4 28.9,8.5 15.3,15.5 
			8.6,13.2 		"/>
	</g>
	
		<linearGradient id="SVGID_8_" gradientUnits="userSpaceOnUse" x1="-113.4497" y1="142.5051" x2="-107.7598" y2="142.5051" gradientTransform="matrix(0.7698 0 0 -0.7698 87.365 133.5285)">
		<stop  offset="0" style="stop-color:#F9BE00"/>
		<stop  offset="1" style="stop-color:#ED7700"/>
	</linearGradient>
	<circle fill="url(#SVGID_8_)" cx="2.3" cy="23.8" r="2.3"/>
	
		<linearGradient id="SVGID_9_" gradientUnits="userSpaceOnUse" x1="-96.5065" y1="153.8588" x2="-90.8165" y2="153.8588" gradientTransform="matrix(0.7698 0 0 -0.7698 87.365 133.5285)">
		<stop  offset="0" style="stop-color:#F9BE00"/>
		<stop  offset="1" style="stop-color:#ED7700"/>
	</linearGradient>
	<circle fill="url(#SVGID_9_)" cx="15.3" cy="15.1" r="2.3"/>
	
		<linearGradient id="SVGID_10_" gradientUnits="userSpaceOnUse" x1="-62.375" y1="147.3337" x2="-56.4298" y2="147.3337" gradientTransform="matrix(0.7698 0 0 -0.7698 87.365 133.5285)">
		<stop  offset="0" style="stop-color:#F9BE00"/>
		<stop  offset="1" style="stop-color:#ED7700"/>
	</linearGradient>
	<circle fill="url(#SVGID_10_)" cx="41.7" cy="20.1" r="2.3"/>
	
		<linearGradient id="SVGID_11_" gradientUnits="userSpaceOnUse" x1="-78.7112" y1="162.8635" x2="-72.766" y2="162.8635" gradientTransform="matrix(0.7698 0 0 -0.7698 87.365 133.5285)">
		<stop  offset="0" style="stop-color:#F9BE00"/>
		<stop  offset="1" style="stop-color:#ED7700"/>
	</linearGradient>
	<circle fill="url(#SVGID_11_)" cx="29" cy="8.2" r="2.3"/>
	
		<linearGradient id="SVGID_12_" gradientUnits="userSpaceOnUse" x1="-105.4772" y1="156.7299" x2="-99.5321" y2="156.7299" gradientTransform="matrix(0.7698 0 0 -0.7698 87.365 133.5285)">
		<stop  offset="0" style="stop-color:#F9BE00"/>
		<stop  offset="1" style="stop-color:#ED7700"/>
	</linearGradient>
	<circle fill="url(#SVGID_12_)" cx="8.5" cy="12.9" r="2.3"/>
	<g>
		<path fill="#FFFFFF" d="M22.1,28.2L22.1,28.2L21.2,27l0,0c-1.2-1.1-2.5-1.7-4-1.7c-2.7,0-4.9,2.3-4.9,4.9c0,2.6,2.3,4.9,4.9,4.9
			c1.5,0,2.8-0.6,4-1.7l0,0l0.6-0.7L20.4,31l-0.7,1c-0.8,0.7-1.7,1.1-2.5,1.1c-1.5,0-2.7-1.2-2.7-2.7s1.2-2.7,2.7-2.7
			c0.9,0,1.7,0.4,2.5,1.1l1.2,1.4l0,0l1.7,1.9l0,0l0.1,0.1V29L22.1,28.2z"/>
	</g>
	<g>
		<path fill="#FFFFFF" d="M22.9,32.3L22.9,32.3l0.9,1.1l0,0c1.2,1.1,2.5,1.7,4,1.7c2.7,0,4.9-2.3,4.9-4.9s-2.3-4.9-4.9-4.9
			c-1.5,0-2.8,0.6-4,1.7l0,0l-0.7,0.8l1.4,1.7l0.7-0.9c0.8-0.7,1.7-1.1,2.5-1.1c1.5,0,2.7,1.2,2.7,2.7S29.3,33,27.7,33
			c-0.9,0-1.7-0.4-2.5-1.1l-1.1-1.4l0,0l-1.5-1.9l0,0l-0.1-0.1v3.2L22.9,32.3z"/>
	</g>
</g>
</svg>
