<?xml version="1.0" encoding="utf-8"?>
<!-- Generator: Adobe Illustrator 17.1.0, SVG Export Plug-In . SVG Version: 6.00 Build 0)  -->
<!DOCTYPE svg PUBLIC "-//W3C//DTD SVG 1.1//EN" "http://www.w3.org/Graphics/SVG/1.1/DTD/svg11.dtd">
<svg version="1.1" id="图层_1" xmlns="http://www.w3.org/2000/svg" xmlns:xlink="http://www.w3.org/1999/xlink" x="0px" y="0px"
	 viewBox="0 0 66 14" enable-background="new 0 0 66 14" xml:space="preserve">
<g>
	<path fill="#FFFFFF" d="M23.2,6.2h-3.6c-0.6,0-1.1-0.5-1.1-1.1l0,0C18.5,4.5,19,4,19.6,4c1.1,0,2.3,0,3.4,0c0.4,0,0.8,0.2,1,0.5
		c0.2,0.3,0.6,0.6,1.4,0.6h1.8c0,0-0.6-0.3-0.6-0.8l0,0c0-1.7-1.4-3.1-3.1-3.1h-3.9c-2.2,0-3.9,1.8-3.9,3.9l0,0
		c0,2.2,1.8,3.9,3.9,3.9c1,0,2.6,0,3.6,0c0.6,0,1.1,0.5,1.1,1.1l0,0c0,0.6-0.5,1.1-1.1,1.1c-1.1,0-2.4,0-3.4,0c-0.4,0-0.8-0.2-1-0.5
		c-0.2-0.3-0.6-0.6-1.4-0.6h-1.8c0,0,0.6,0.3,0.6,0.8l0,0c0,1.7,1.4,3.1,3.1,3.1h3.9c2.2,0,3.9-1.7,3.9-3.9l0,0
		C27.1,7.9,25.3,6.2,23.2,6.2z"/>
	<path fill="#FFFFFF" d="M62,6.2h-3.6c-0.6,0-1.1-0.5-1.1-1.1l0,0c0-0.6,0.5-1.1,1.1-1.1c1.1,0,2.3,0,3.4,0c0.4,0,0.8,0.2,1,0.5
		c0.2,0.3,0.6,0.6,1.4,0.6H66c0,0-0.6-0.3-0.6-0.8l0,0c0-1.7-1.4-3.1-3.1-3.1h-3.9c-2.2,0-3.9,1.8-3.9,3.9l0,0
		c0,2.2,1.8,3.9,3.9,3.9c1,0,2.6,0,3.6,0c0.6,0,1.1,0.5,1.1,1.1l0,0c0,0.6-0.5,1.1-1.1,1.1c-1.1,0-2.4,0-3.4,0c-0.4,0-0.8-0.2-1-0.5
		c-0.2-0.3-0.6-0.6-1.4-0.6h-1.8c0,0,0.6,0.3,0.6,0.8l0,0c0,1.7,1.4,3.1,3.1,3.1H62c2.2,0,3.9-1.7,3.9-3.9l0,0
		C65.9,7.9,64.2,6.2,62,6.2z"/>
	<g>
		
			<linearGradient id="SVGID_1_" gradientUnits="userSpaceOnUse" x1="-120.5488" y1="-6440.7139" x2="-120.5488" y2="-6289.2773" gradientTransform="matrix(4.998686e-002 0 0 4.998686e-002 8.3586 328.3222)">
			<stop  offset="0" style="stop-color:#F9BE00"/>
			<stop  offset="0.2346" style="stop-color:#F9BB00"/>
			<stop  offset="0.423" style="stop-color:#F7B101"/>
			<stop  offset="0.5954" style="stop-color:#F4A001"/>
			<stop  offset="0.7582" style="stop-color:#F18802"/>
			<stop  offset="0.9129" style="stop-color:#EC6A03"/>
			<stop  offset="1" style="stop-color:#E95504"/>
		</linearGradient>
		<path fill="url(#SVGID_1_)" d="M2.2,14H4c0,0-0.6-0.3-0.6-0.8s0-6.8,0-6.8H0.6v6.4C0.6,12.8,0.5,14,2.2,14z"/>
		
			<linearGradient id="SVGID_2_" gradientUnits="userSpaceOnUse" x1="-87.4348" y1="-6372.4307" x2="84.2142" y2="-6372.4307" gradientTransform="matrix(4.998686e-002 0 0 4.998686e-002 8.3586 328.3222)">
			<stop  offset="0" style="stop-color:#E95504"/>
			<stop  offset="6.224763e-002" style="stop-color:#EA5B04"/>
			<stop  offset="0.4516" style="stop-color:#EE7B02"/>
			<stop  offset="0.778" style="stop-color:#F18F00"/>
			<stop  offset="1" style="stop-color:#F29600"/>
		</linearGradient>
		<path fill="url(#SVGID_2_)" d="M11,13.5l1.5-1.5c0,0-0.7,0.6-1.7-0.4c-0.4-0.4-6-6-6-6L4,8.7l4.4,4.4C8.4,13.1,9.8,14.8,11,13.5z"
			/>
		
			<linearGradient id="SVGID_3_" gradientUnits="userSpaceOnUse" x1="-98.4007" y1="-6453.1006" x2="84.2783" y2="-6453.1006" gradientTransform="matrix(4.998686e-002 0 0 4.998686e-002 8.3586 328.3222)">
			<stop  offset="0" style="stop-color:#F9BE00"/>
			<stop  offset="1" style="stop-color:#ED7700"/>
		</linearGradient>
		<path fill="url(#SVGID_3_)" d="M11,1.7C9.8,0.4,8.4,2.1,8.4,2.1L3.9,6.6c-0.9,1.1,0,2,0,2l1,1l0,0l0.7,0.7C5,9.6,5.6,8.8,5.6,8.8
			l0,0c1.6-1.6,4.9-4.9,5.2-5.2c1-1,1.7-0.4,1.7-0.4L11,1.7z"/>
		
			<linearGradient id="SVGID_4_" gradientUnits="userSpaceOnUse" x1="-132.4913" y1="-6543.0288" x2="-132.4913" y2="-6383.4966" gradientTransform="matrix(4.998686e-002 0 0 4.998686e-002 8.3586 328.3222)">
			<stop  offset="0" style="stop-color:#F9BE00"/>
			<stop  offset="1" style="stop-color:#E95504"/>
		</linearGradient>
		<path fill="url(#SVGID_4_)" d="M0.6,9.3c0,0,0-6.7,0-7.3S0,1.2,0,1.2h1.9c1.7,0,1.6,1.2,1.6,1.2v5.1C3.5,7.4,3.6,9.3,0.6,9.3z"/>
	</g>
	
		<linearGradient id="SVGID_5_" gradientUnits="userSpaceOnUse" x1="67.3063" y1="-6454.6323" x2="67.3063" y2="-6376.8496" gradientTransform="matrix(4.998686e-002 0 0 4.998686e-002 8.3586 328.3222)">
		<stop  offset="0" style="stop-color:#F9BE00"/>
		<stop  offset="1" style="stop-color:#ED7700"/>
	</linearGradient>
	<polygon fill="url(#SVGID_5_)" points="11.7,5.6 13.7,7.6 11.7,9.6 9.7,7.6 	"/>
	<rect y="1.2" fill="none" width="12.6" height="12.8"/>
	<g>
		<g>
			<path fill="#FFFFFF" d="M34.1,14c-3.3,0-6-2.7-6-6c0-3.3,2.7-6,6-6c3.3,0,6,2.7,6,6S37.4,14,34.1,14z M34.1,4.9
				C32.4,4.9,31,6.3,31,8s1.4,3.1,3.1,3.1s3.1-1.4,3.1-3.1C37.3,6.3,35.9,4.9,34.1,4.9z"/>
		</g>
		<path fill="#FFFFFF" d="M38.9,14h1.9c0,0-0.6-0.3-0.6-0.8s0-5,0-5h-2.8v4.6C37.3,12.8,37.2,14,38.9,14z"/>
	</g>
	<g>
		<g>
			<path fill="#FFFFFF" d="M47.3,14c-3.3,0-6-2.7-6-6c0-3.3,2.7-6,6-6c3.3,0,6,2.7,6,6S50.6,14,47.3,14z M47.3,4.9
				c-1.7,0-3.1,1.4-3.1,3.1s1.4,3.1,3.1,3.1s3.1-1.4,3.1-3.1C50.4,6.3,49,4.9,47.3,4.9z"/>
		</g>
		<path fill="#FFFFFF" d="M52,14h1.9c0,0-0.6-0.3-0.6-0.8s0-5,0-5h-2.8v4.6C50.4,12.8,50.3,14,52,14z"/>
	</g>
</g>
</svg>
